<svg xmlns="http://www.w3.org/2000/svg" style="display:none">

  <!-- Иконка: сердце (лайки) -->
  <symbol id="icon-heart" viewBox="0 0 24 24">
    <path fill="currentColor" d="M12 21.35l-1.45-1.32C5.4 15.36 2 12.28 2 8.5 2 5.42 4.42 3 7.5 3c1.74 0 3.41.81 4.5 2.09C13.09 3.81 14.76 3 16.5 3 19.58 3 22 5.42 22 8.5c0 3.78-3.4 6.86-8.55 11.54L12 21.35z"/>
  </symbol>

  <!-- Иконка: поиск -->
  <symbol id="icon-search" viewBox="0 0 24 24">
    <path fill="currentColor" d="M15.5 14h-.79l-.28-.27A6.47 6.47 0 0 0 16 9.5 6.5 6.5 0 1 0 9.5 16c1.61 0 3.09-.59 4.23-1.57l.27.28v.79l5 4.99L20.49 19l-4.99-5zm-6 0C7.01 14 5 11.99 5 9.5S7.01 5 9.5 5 14 7.01 14 9.5 11.99 14 9.5 14z"/>
  </symbol>

  <!-- Иконка: пользователь -->
  <symbol id="icon-user" viewBox="0 0 24 24">
    <path fill="currentColor" d="M12 12c2.7 0 4.8-2.1 4.8-4.8S14.7 2.4 12 2.4 7.2 4.5 7.2 7.2 9.3 12 12 12zm0 2.4c-3.2 0-9.6 1.6-9.6 4.8v2.4h19.2v-2.4c0-3.2-6.4-4.8-9.6-4.8z"/>
  </symbol>

  <!-- Иконка: фильтр -->
  <symbol id="icon-filter" viewBox="0 0 24 24">
    <path fill="currentColor" d="M4.25 5.61C6.27 8.2 10 13 10 13v6c0 .55.45 1 1 1h2c.55 0 1-.45 1-1v-6s3.72-4.8 5.74-7.39A1 1 0 0 0 18.95 4H5.04a1 1 0 0 0-.79 1.61z"/>
  </symbol>

  <!-- Иконка: комментарий -->
  <symbol id="icon-comment" viewBox="0 0 24 24">
    <path fill="currentColor" d="M20 2H4c-1.1 0-2 .9-2 2v18l4-4h14c1.1 0 2-.9 2-2V4c0-1.1-.9-2-2-2z"/>
  </symbol>

</svg>
